<svg width="40" height="40" viewBox="0 0 40 40" fill="none" xmlns="http://www.w3.org/2000/svg">
<path fill-rule="evenodd" clip-rule="evenodd" d="M20 40C31.0457 40 40 31.0457 40 20C40 8.9543 31.0457 0 20 0C8.9543 0 0 8.9543 0 20C0 31.0457 8.9543 40 20 40Z" fill="#FE798D"/>
<path fill-rule="evenodd" clip-rule="evenodd" d="M9 10V12H11L14.6 19.59L13.25 22.03C12.52 23.37 13.48 25 15 25H27V23H15L16.1 21H23.55C24.3 21 24.96 20.59 25.3 19.97L28.88 13.48C29.25 12.82 28.77 12 28.01 12H13.21L12.27 10H9ZM15 26C13.9 26 13.01 26.9 13.01 28C13.01 29.1 13.9 30 15 30C16.1 30 17 29.1 17 28C17 26.9 16.1 26 15 26ZM23.01 28C23.01 26.9 23.9 26 25 26C26.1 26 27 26.9 27 28C27 29.1 26.1 30 25 30C23.9 30 23.01 29.1 23.01 28Z" fill="white"/>
</svg>
