<svg width="40" height="40" viewBox="0 0 40 40" fill="none" xmlns="http://www.w3.org/2000/svg">
<path fill-rule="evenodd" clip-rule="evenodd" d="M20 40C31.0457 40 40 31.0457 40 20C40 8.9543 31.0457 0 20 0C8.9543 0 0 8.9543 0 20C0 31.0457 8.9543 40 20 40Z" fill="#E4E4E4"/>
<path fill-rule="evenodd" clip-rule="evenodd" d="M27.41 18.0167C25.82 19.6067 23.67 20.1067 22.14 19.3967L20.67 20.8667L27.55 27.7467L26.14 29.1567L19.26 22.2767L12.37 29.1467L10.96 27.7367L20.72 17.9767C20.01 16.4467 20.51 14.2967 22.1 12.7067C24.02 10.7967 26.76 10.4367 28.22 11.8967C29.69 13.3667 29.32 16.1067 27.41 18.0167ZM18.19 18.3767L15.36 21.2067L11.17 17.0267C9.61 15.4567 9.61 12.9267 11.17 11.3667L18.19 18.3767Z" fill="white"/>
</svg>
