<svg width="20" height="20" viewBox="0 0 20 20" fill="none" xmlns="http://www.w3.org/2000/svg">
<g id="icon-social-git-hub">
<path id="Path" fill-rule="evenodd" clip-rule="evenodd" d="M10 1.50073C14.6948 1.50073 18.5 5.40212 18.5 10.2157C18.5 14.0653 16.0666 17.3307 12.692 18.4847C12.2607 18.5699 12.1077 18.2982 12.1077 18.0658C12.1077 17.7787 12.1179 16.8404 12.1179 15.6747C12.1179 14.8616 11.8461 14.3312 11.5409 14.0609C13.4337 13.8453 15.4226 13.108 15.4226 9.76103C15.4226 8.80882 15.0933 8.03219 14.5476 7.42239C14.6358 7.20164 14.9272 6.31499 14.4638 5.11507C14.4638 5.11507 13.752 4.88193 12.1296 6.00827C11.4498 5.81521 10.7227 5.71831 10 5.71539C9.27728 5.71831 8.55018 5.81521 7.87263 6.00827C6.24796 4.8812 5.53398 5.11507 5.53398 5.11507C5.07281 6.31499 5.36423 7.20164 5.45166 7.42166C4.90889 8.03219 4.57667 8.80882 4.57667 9.76103C4.57667 13.1 6.56124 13.8482 8.44892 14.0682C8.20558 14.2853 7.98556 14.67 7.90906 15.2332C7.42457 15.4561 6.19405 15.8408 5.43563 14.509C5.43563 14.509 4.98611 13.6712 4.13298 13.6107C4.13298 13.6107 3.30389 13.5998 4.0747 14.1404C4.0747 14.1404 4.63131 14.4077 5.01817 15.4153C5.01817 15.4153 5.51723 16.9708 7.88137 16.4433C7.88575 17.1719 7.89376 17.8589 7.89376 18.0658C7.89376 18.2967 7.73712 18.5656 7.31311 18.4854C3.93554 17.3336 1.5 14.066 1.5 10.2164C1.5 5.40139 5.30668 1.5 10 1.5" fill="black"/>
</g>
</svg>
