<svg width="40" height="40" viewBox="0 0 40 40" fill="none" xmlns="http://www.w3.org/2000/svg">
<path fill-rule="evenodd" clip-rule="evenodd" d="M20 40C31.0457 40 40 31.0457 40 20C40 8.9543 31.0457 0 20 0C8.9543 0 0 8.9543 0 20C0 31.0457 8.9543 40 20 40Z" fill="#6F86C0"/>
<path fill-rule="evenodd" clip-rule="evenodd" d="M28 12H12C10.89 12 10.01 12.89 10.01 14L10 26C10 27.11 10.89 28 12 28H28C29.11 28 30 27.11 30 26V14C30 12.89 29.11 12 28 12ZM19 25H21V24H22C22.55 24 23 23.55 23 23V20C23 19.45 22.55 19 22 19H19V18H23V16H21V15H19V16H18C17.45 16 17 16.45 17 17V20C17 20.55 17.45 21 18 21H21V22H17V24H19V25ZM12 26H28V14H12V26Z" fill="white"/>
</svg>
