<svg width="40" height="40" viewBox="0 0 40 40" fill="none" xmlns="http://www.w3.org/2000/svg">
<path fill-rule="evenodd" clip-rule="evenodd" d="M20 40C31.0457 40 40 31.0457 40 20C40 8.9543 31.0457 0 20 0C8.9543 0 0 8.9543 0 20C0 31.0457 8.9543 40 20 40Z" fill="#77C098"/>
<path fill-rule="evenodd" clip-rule="evenodd" d="M13 11H27C28.1 11 29 11.9 29 13V27C29 28.1 28.1 29 27 29H13C11.9 29 11 28.1 11 27L11.01 13C11.01 11.9 11.9 11 13 11ZM22 22H26V18H22V14H18V18H14V22H18V26H22V22Z" fill="white"/>
</svg>
