<svg width="18" height="18" viewBox="0 0 18 18" fill="none" xmlns="http://www.w3.org/2000/svg">
<path fill-rule="evenodd" clip-rule="evenodd" d="M4.62857 2.31429C4.62857 3.59243 3.59243 4.62857 2.31429 4.62857C1.03614 4.62857 0 3.59243 0 2.31429C0 1.03614 1.03614 0 2.31429 0C3.59243 0 4.62857 1.03614 4.62857 2.31429ZM8.81448 1.02855C8.20697 1.02855 7.71448 1.52104 7.71448 2.12855V2.75712C7.71448 3.36464 8.20697 3.85712 8.81448 3.85712H16.9002C17.5077 3.85712 18.0002 3.36464 18.0002 2.75712V2.12855C18.0002 1.52104 17.5077 1.02855 16.9002 1.02855H8.81448ZM8.81448 13.8858C8.20697 13.8858 7.71448 14.3783 7.71448 14.9858V15.6144C7.71448 16.2219 8.20697 16.7144 8.81448 16.7144H16.9002C17.5077 16.7144 18.0002 16.2219 18.0002 15.6144V14.9858C18.0002 14.3783 17.5077 13.8858 16.9002 13.8858H8.81448ZM0 8.55729C0 7.94977 0.492487 7.45729 1.1 7.45729H9.18571C9.79323 7.45729 10.2857 7.94978 10.2857 8.55729V9.18586C10.2857 9.79337 9.79323 10.2859 9.18571 10.2859H1.1C0.492488 10.2859 0 9.79337 0 9.18586V8.55729ZM2.31429 17.4856C3.59243 17.4856 4.62857 16.4494 4.62857 15.1713C4.62857 13.8932 3.59243 12.857 2.31429 12.857C1.03614 12.857 0 13.8932 0 15.1713C0 16.4494 1.03614 17.4856 2.31429 17.4856ZM17.4856 8.74279C17.4856 10.0209 16.4494 11.0571 15.1713 11.0571C13.8932 11.0571 12.857 10.0209 12.857 8.74279C12.857 7.46465 13.8932 6.42851 15.1713 6.42851C16.4494 6.42851 17.4856 7.46465 17.4856 8.74279Z" fill="white"/>
</svg>
