<svg width="40" height="40" viewBox="0 0 40 40" fill="none" xmlns="http://www.w3.org/2000/svg">
<path fill-rule="evenodd" clip-rule="evenodd" d="M20 40C31.0457 40 40 31.0457 40 20C40 8.9543 31.0457 0 20 0C8.9543 0 0 8.9543 0 20C0 31.0457 8.9543 40 20 40Z" fill="#AA642F"/>
<path fill-rule="evenodd" clip-rule="evenodd" d="M28 11H12V21C12 23.21 13.79 25 16 25H22C24.21 25 26 23.21 26 21V18H28C29.11 18 30 17.11 30 16V13C30 11.89 29.11 11 28 11ZM28 16H26V13H28V16ZM28 29H10V27H28V29Z" fill="white"/>
</svg>
