<svg width="40" height="40" viewBox="0 0 40 40" fill="none" xmlns="http://www.w3.org/2000/svg">
<path fill-rule="evenodd" clip-rule="evenodd" d="M20 40C31.0457 40 40 31.0457 40 20C40 8.9543 31.0457 0 20 0C8.9543 0 0 8.9543 0 20C0 31.0457 8.9543 40 20 40Z" fill="#E4E4E4"/>
<path fill-rule="evenodd" clip-rule="evenodd" d="M27 13H25C25 10.24 22.76 8 20 8C17.24 8 15 10.24 15 13H13C11.9 13 11 13.9 11 15V27C11 28.1 11.9 29 13 29H27C28.1 29 29 28.1 29 27V15C29 13.9 28.1 13 27 13ZM20 10C21.66 10 23 11.34 23 13H17C17 11.34 18.34 10 20 10ZM15 15C15 17.76 17.24 20 20 20C22.76 20 25 17.76 25 15H23C23 16.66 21.66 18 20 18C18.34 18 17 16.66 17 15H15Z" fill="white"/>
</svg>
