<svg width="24" height="24" viewBox="0 0 24 24" fill="none" xmlns="http://www.w3.org/2000/svg">
<path d="M16.3866 15.3625L7.19983 13.134L7.64557 11.2964L16.8323 13.5248L16.3866 15.3625Z" fill="white"/>
<path d="M17.0025 13.1643L8.58472 8.86226L9.4449 7.17822L17.8627 11.4805L17.0025 13.1643Z" fill="white"/>
<path d="M18.299 10.8867L11.1802 4.66597L12.4239 3.24219L19.5429 9.46248L18.299 10.8865" fill="white"/>
<path d="M20.2573 8.88483L14.9484 1.06218L16.513 0L21.8218 7.82307L20.2575 8.88504" fill="white"/>
<path d="M16.2397 17.661L6.80054 17.1455L6.90356 15.2573L16.3427 15.7728L16.2397 17.661Z" fill="white"/>
<path d="M18.1966 22.1088V14.2749H20.0856L20.0868 23.9999H3L3.00042 14.2668H4.89109V22.1088H18.1966Z" fill="white"/>
<path d="M6.77417 18.3342H16.2916V20.2252H6.77417V18.3344V18.3342Z" fill="white"/>
</svg>
