<svg width="20" height="20" viewBox="0 0 20 20" fill="none" xmlns="http://www.w3.org/2000/svg">
<g id="ainize_logo_tiny">
<path id="Combined Shape" fill-rule="evenodd" clip-rule="evenodd" d="M6.6 4.8C6.6 5.79411 5.79411 6.6 4.8 6.6C3.80589 6.6 3 5.79411 3 4.8C3 3.80589 3.80589 3 4.8 3C5.79411 3 6.6 3.80589 6.6 4.8ZM10.1 3.8C9.49249 3.8 9 4.29249 9 4.9C9 5.50751 9.49249 6 10.1 6H15.9C16.5075 6 17 5.50751 17 4.9C17 4.29249 16.5075 3.8 15.9 3.8H10.1ZM10.1 13.8C9.49249 13.8 9 14.2925 9 14.9C9 15.5075 9.49249 16 10.1 16H15.9C16.5075 16 17 15.5075 17 14.9C17 14.2925 16.5075 13.8 15.9 13.8H10.1ZM3 9.9C3 9.29249 3.49249 8.8 4.1 8.8H9.9C10.5075 8.8 11 9.29249 11 9.9C11 10.5075 10.5075 11 9.9 11H4.1C3.49249 11 3 10.5075 3 9.9ZM4.8 16.6C5.79411 16.6 6.6 15.7941 6.6 14.8C6.6 13.8059 5.79411 13 4.8 13C3.80589 13 3 13.8059 3 14.8C3 15.7941 3.80589 16.6 4.8 16.6ZM16.6 9.8C16.6 10.7941 15.7941 11.6 14.8 11.6C13.8059 11.6 13 10.7941 13 9.8C13 8.80589 13.8059 8 14.8 8C15.7941 8 16.6 8.80589 16.6 9.8Z" fill="#8E8E94"/>
</g>
</svg>
