<svg width="306" height="28" viewBox="0 0 306 28" fill="none" xmlns="http://www.w3.org/2000/svg">
<path fill-rule="evenodd" clip-rule="evenodd" d="M8 22C12.4183 22 16 18.4183 16 14C16 9.58172 12.4183 6 8 6C3.58172 6 0 9.58172 0 14C0 18.4183 3.58172 22 8 22Z" fill="#44D7B6"/>
<path opacity="0.6" d="M32.388 9.6V18H31.656L26.256 11.184V18H25.368V9.6H26.1L31.512 16.416V9.6H32.388ZM37.5297 18.06C36.9217 18.06 36.3737 17.924 35.8857 17.652C35.3977 17.372 35.0137 16.988 34.7337 16.5C34.4537 16.012 34.3137 15.46 34.3137 14.844C34.3137 14.228 34.4537 13.676 34.7337 13.188C35.0137 12.7 35.3977 12.32 35.8857 12.048C36.3737 11.776 36.9217 11.64 37.5297 11.64C38.1377 11.64 38.6857 11.776 39.1737 12.048C39.6617 12.32 40.0417 12.7 40.3137 13.188C40.5937 13.676 40.7337 14.228 40.7337 14.844C40.7337 15.46 40.5937 16.012 40.3137 16.5C40.0417 16.988 39.6617 17.372 39.1737 17.652C38.6857 17.924 38.1377 18.06 37.5297 18.06ZM37.5297 17.304C37.9777 17.304 38.3777 17.204 38.7297 17.004C39.0897 16.796 39.3697 16.504 39.5697 16.128C39.7697 15.752 39.8697 15.324 39.8697 14.844C39.8697 14.364 39.7697 13.936 39.5697 13.56C39.3697 13.184 39.0897 12.896 38.7297 12.696C38.3777 12.488 37.9777 12.384 37.5297 12.384C37.0817 12.384 36.6777 12.488 36.3177 12.696C35.9657 12.896 35.6857 13.184 35.4777 13.56C35.2777 13.936 35.1777 14.364 35.1777 14.844C35.1777 15.324 35.2777 15.752 35.4777 16.128C35.6857 16.504 35.9657 16.796 36.3177 17.004C36.6777 17.204 37.0817 17.304 37.5297 17.304ZM45.7972 17.616C45.6372 17.76 45.4372 17.872 45.1972 17.952C44.9652 18.024 44.7212 18.06 44.4652 18.06C43.8732 18.06 43.4172 17.9 43.0972 17.58C42.7772 17.26 42.6172 16.808 42.6172 16.224V12.408H41.4892V11.688H42.6172V10.308H43.4692V11.688H45.3892V12.408H43.4692V16.176C43.4692 16.552 43.5612 16.84 43.7452 17.04C43.9372 17.232 44.2092 17.328 44.5612 17.328C44.7372 17.328 44.9052 17.3 45.0652 17.244C45.2332 17.188 45.3772 17.108 45.4972 17.004L45.7972 17.616ZM55.9608 13.668C56.5128 13.788 56.9368 14.028 57.2328 14.388C57.5368 14.74 57.6888 15.196 57.6888 15.756C57.6888 16.476 57.4208 17.032 56.8848 17.424C56.3568 17.808 55.5728 18 54.5328 18H50.6688V9.6H54.2928C55.2288 9.6 55.9528 9.788 56.4648 10.164C56.9848 10.54 57.2448 11.072 57.2448 11.76C57.2448 12.224 57.1288 12.62 56.8968 12.948C56.6728 13.268 56.3608 13.508 55.9608 13.668ZM51.5568 10.332V13.38H54.2328C54.9128 13.38 55.4368 13.252 55.8048 12.996C56.1728 12.732 56.3568 12.352 56.3568 11.856C56.3568 11.36 56.1728 10.984 55.8048 10.728C55.4368 10.464 54.9128 10.332 54.2328 10.332H51.5568ZM54.5208 17.268C55.2728 17.268 55.8408 17.14 56.2248 16.884C56.6088 16.628 56.8008 16.228 56.8008 15.684C56.8008 14.636 56.0408 14.112 54.5208 14.112H51.5568V17.268H54.5208ZM65.2237 11.688V18H64.4077V16.848C64.1837 17.232 63.8757 17.532 63.4837 17.748C63.0917 17.956 62.6437 18.06 62.1397 18.06C61.3157 18.06 60.6637 17.832 60.1837 17.376C59.7117 16.912 59.4757 16.236 59.4757 15.348V11.688H60.3277V15.264C60.3277 15.928 60.4917 16.432 60.8197 16.776C61.1477 17.12 61.6157 17.292 62.2237 17.292C62.8877 17.292 63.4117 17.092 63.7957 16.692C64.1797 16.284 64.3717 15.72 64.3717 15V11.688H65.2237ZM69.3019 18.06C68.7899 18.06 68.2979 17.988 67.8259 17.844C67.3619 17.692 66.9979 17.504 66.7339 17.28L67.1179 16.608C67.3819 16.816 67.7139 16.988 68.1139 17.124C68.5139 17.252 68.9299 17.316 69.3619 17.316C69.9379 17.316 70.3619 17.228 70.6339 17.052C70.9139 16.868 71.0539 16.612 71.0539 16.284C71.0539 16.052 70.9779 15.872 70.8259 15.744C70.6739 15.608 70.4819 15.508 70.2499 15.444C70.0179 15.372 69.7099 15.304 69.3259 15.24C68.8139 15.144 68.4019 15.048 68.0899 14.952C67.7779 14.848 67.5099 14.676 67.2859 14.436C67.0699 14.196 66.9619 13.864 66.9619 13.44C66.9619 12.912 67.1819 12.48 67.6219 12.144C68.0619 11.808 68.6739 11.64 69.4579 11.64C69.8659 11.64 70.2739 11.696 70.6819 11.808C71.0899 11.912 71.4259 12.052 71.6899 12.228L71.3179 12.912C70.7979 12.552 70.1779 12.372 69.4579 12.372C68.9139 12.372 68.5019 12.468 68.2219 12.66C67.9499 12.852 67.8139 13.104 67.8139 13.416C67.8139 13.656 67.8899 13.848 68.0419 13.992C68.2019 14.136 68.3979 14.244 68.6299 14.316C68.8619 14.38 69.1819 14.448 69.5899 14.52C70.0939 14.616 70.4979 14.712 70.8019 14.808C71.1059 14.904 71.3659 15.068 71.5819 15.3C71.7979 15.532 71.9059 15.852 71.9059 16.26C71.9059 16.812 71.6739 17.252 71.2099 17.58C70.7539 17.9 70.1179 18.06 69.3019 18.06ZM78.6678 11.688L75.5118 18.756C75.2558 19.348 74.9598 19.768 74.6238 20.016C74.2878 20.264 73.8838 20.388 73.4118 20.388C73.1078 20.388 72.8238 20.34 72.5598 20.244C72.2958 20.148 72.0678 20.004 71.8758 19.812L72.2718 19.176C72.5918 19.496 72.9758 19.656 73.4238 19.656C73.7118 19.656 73.9558 19.576 74.1558 19.416C74.3638 19.256 74.5558 18.984 74.7318 18.6L75.0078 17.988L72.1878 11.688H73.0758L75.4518 17.052L77.8278 11.688H78.6678Z" fill="#1A1B1F"/>
<path fill-rule="evenodd" clip-rule="evenodd" d="M107 22C111.418 22 115 18.4183 115 14C115 9.58172 111.418 6 107 6C102.582 6 99 9.58172 99 14C99 18.4183 102.582 22 107 22Z" fill="#F4C84F"/>
<path opacity="0.6" d="M131.388 9.6V18H130.656L125.256 11.184V18H124.368V9.6H125.1L130.512 16.416V9.6H131.388ZM136.53 18.06C135.922 18.06 135.374 17.924 134.886 17.652C134.398 17.372 134.014 16.988 133.734 16.5C133.454 16.012 133.314 15.46 133.314 14.844C133.314 14.228 133.454 13.676 133.734 13.188C134.014 12.7 134.398 12.32 134.886 12.048C135.374 11.776 135.922 11.64 136.53 11.64C137.138 11.64 137.686 11.776 138.174 12.048C138.662 12.32 139.042 12.7 139.314 13.188C139.594 13.676 139.734 14.228 139.734 14.844C139.734 15.46 139.594 16.012 139.314 16.5C139.042 16.988 138.662 17.372 138.174 17.652C137.686 17.924 137.138 18.06 136.53 18.06ZM136.53 17.304C136.978 17.304 137.378 17.204 137.73 17.004C138.09 16.796 138.37 16.504 138.57 16.128C138.77 15.752 138.87 15.324 138.87 14.844C138.87 14.364 138.77 13.936 138.57 13.56C138.37 13.184 138.09 12.896 137.73 12.696C137.378 12.488 136.978 12.384 136.53 12.384C136.082 12.384 135.678 12.488 135.318 12.696C134.966 12.896 134.686 13.184 134.478 13.56C134.278 13.936 134.178 14.364 134.178 14.844C134.178 15.324 134.278 15.752 134.478 16.128C134.686 16.504 134.966 16.796 135.318 17.004C135.678 17.204 136.082 17.304 136.53 17.304ZM144.797 17.616C144.637 17.76 144.437 17.872 144.197 17.952C143.965 18.024 143.721 18.06 143.465 18.06C142.873 18.06 142.417 17.9 142.097 17.58C141.777 17.26 141.617 16.808 141.617 16.224V12.408H140.489V11.688H141.617V10.308H142.469V11.688H144.389V12.408H142.469V16.176C142.469 16.552 142.561 16.84 142.745 17.04C142.937 17.232 143.209 17.328 143.561 17.328C143.737 17.328 143.905 17.3 144.065 17.244C144.233 17.188 144.377 17.108 144.497 17.004L144.797 17.616ZM151.301 10.368H148.349V9.6H155.141V10.368H152.189V18H151.301V10.368ZM158.303 18.06C157.695 18.06 157.147 17.924 156.659 17.652C156.171 17.372 155.787 16.988 155.507 16.5C155.227 16.012 155.087 15.46 155.087 14.844C155.087 14.228 155.227 13.676 155.507 13.188C155.787 12.7 156.171 12.32 156.659 12.048C157.147 11.776 157.695 11.64 158.303 11.64C158.911 11.64 159.459 11.776 159.947 12.048C160.435 12.32 160.815 12.7 161.087 13.188C161.367 13.676 161.507 14.228 161.507 14.844C161.507 15.46 161.367 16.012 161.087 16.5C160.815 16.988 160.435 17.372 159.947 17.652C159.459 17.924 158.911 18.06 158.303 18.06ZM158.303 17.304C158.751 17.304 159.151 17.204 159.503 17.004C159.863 16.796 160.143 16.504 160.343 16.128C160.543 15.752 160.643 15.324 160.643 14.844C160.643 14.364 160.543 13.936 160.343 13.56C160.143 13.184 159.863 12.896 159.503 12.696C159.151 12.488 158.751 12.384 158.303 12.384C157.855 12.384 157.451 12.488 157.091 12.696C156.739 12.896 156.459 13.184 156.251 13.56C156.051 13.936 155.951 14.364 155.951 14.844C155.951 15.324 156.051 15.752 156.251 16.128C156.459 16.504 156.739 16.796 157.091 17.004C157.451 17.204 157.855 17.304 158.303 17.304ZM165.827 18.06C165.219 18.06 164.671 17.924 164.183 17.652C163.695 17.372 163.311 16.988 163.031 16.5C162.751 16.012 162.611 15.46 162.611 14.844C162.611 14.228 162.751 13.676 163.031 13.188C163.311 12.7 163.695 12.32 164.183 12.048C164.671 11.776 165.219 11.64 165.827 11.64C166.435 11.64 166.983 11.776 167.471 12.048C167.959 12.32 168.339 12.7 168.611 13.188C168.891 13.676 169.031 14.228 169.031 14.844C169.031 15.46 168.891 16.012 168.611 16.5C168.339 16.988 167.959 17.372 167.471 17.652C166.983 17.924 166.435 18.06 165.827 18.06ZM165.827 17.304C166.275 17.304 166.675 17.204 167.027 17.004C167.387 16.796 167.667 16.504 167.867 16.128C168.067 15.752 168.167 15.324 168.167 14.844C168.167 14.364 168.067 13.936 167.867 13.56C167.667 13.184 167.387 12.896 167.027 12.696C166.675 12.488 166.275 12.384 165.827 12.384C165.379 12.384 164.975 12.488 164.615 12.696C164.263 12.896 163.983 13.184 163.775 13.56C163.575 13.936 163.475 14.364 163.475 14.844C163.475 15.324 163.575 15.752 163.775 16.128C163.983 16.504 164.263 16.796 164.615 17.004C164.975 17.204 165.379 17.304 165.827 17.304ZM179.383 13.668C179.935 13.788 180.359 14.028 180.655 14.388C180.959 14.74 181.111 15.196 181.111 15.756C181.111 16.476 180.843 17.032 180.307 17.424C179.779 17.808 178.995 18 177.955 18H174.091V9.6H177.715C178.651 9.6 179.375 9.788 179.887 10.164C180.407 10.54 180.667 11.072 180.667 11.76C180.667 12.224 180.551 12.62 180.319 12.948C180.095 13.268 179.783 13.508 179.383 13.668ZM174.979 10.332V13.38H177.655C178.335 13.38 178.859 13.252 179.227 12.996C179.595 12.732 179.779 12.352 179.779 11.856C179.779 11.36 179.595 10.984 179.227 10.728C178.859 10.464 178.335 10.332 177.655 10.332H174.979ZM177.943 17.268C178.695 17.268 179.263 17.14 179.647 16.884C180.031 16.628 180.223 16.228 180.223 15.684C180.223 14.636 179.463 14.112 177.943 14.112H174.979V17.268H177.943ZM188.646 11.688V18H187.83V16.848C187.606 17.232 187.298 17.532 186.906 17.748C186.514 17.956 186.066 18.06 185.562 18.06C184.738 18.06 184.086 17.832 183.606 17.376C183.134 16.912 182.898 16.236 182.898 15.348V11.688H183.75V15.264C183.75 15.928 183.914 16.432 184.242 16.776C184.57 17.12 185.038 17.292 185.646 17.292C186.31 17.292 186.834 17.092 187.218 16.692C187.602 16.284 187.794 15.72 187.794 15V11.688H188.646ZM192.724 18.06C192.212 18.06 191.72 17.988 191.248 17.844C190.784 17.692 190.42 17.504 190.156 17.28L190.54 16.608C190.804 16.816 191.136 16.988 191.536 17.124C191.936 17.252 192.352 17.316 192.784 17.316C193.36 17.316 193.784 17.228 194.056 17.052C194.336 16.868 194.476 16.612 194.476 16.284C194.476 16.052 194.4 15.872 194.248 15.744C194.096 15.608 193.904 15.508 193.672 15.444C193.44 15.372 193.132 15.304 192.748 15.24C192.236 15.144 191.824 15.048 191.512 14.952C191.2 14.848 190.932 14.676 190.708 14.436C190.492 14.196 190.384 13.864 190.384 13.44C190.384 12.912 190.604 12.48 191.044 12.144C191.484 11.808 192.096 11.64 192.88 11.64C193.288 11.64 193.696 11.696 194.104 11.808C194.512 11.912 194.848 12.052 195.112 12.228L194.74 12.912C194.22 12.552 193.6 12.372 192.88 12.372C192.336 12.372 191.924 12.468 191.644 12.66C191.372 12.852 191.236 13.104 191.236 13.416C191.236 13.656 191.312 13.848 191.464 13.992C191.624 14.136 191.82 14.244 192.052 14.316C192.284 14.38 192.604 14.448 193.012 14.52C193.516 14.616 193.92 14.712 194.224 14.808C194.528 14.904 194.788 15.068 195.004 15.3C195.22 15.532 195.328 15.852 195.328 16.26C195.328 16.812 195.096 17.252 194.632 17.58C194.176 17.9 193.54 18.06 192.724 18.06ZM202.09 11.688L198.934 18.756C198.678 19.348 198.382 19.768 198.046 20.016C197.71 20.264 197.306 20.388 196.834 20.388C196.53 20.388 196.246 20.34 195.982 20.244C195.718 20.148 195.49 20.004 195.298 19.812L195.694 19.176C196.014 19.496 196.398 19.656 196.846 19.656C197.134 19.656 197.378 19.576 197.578 19.416C197.786 19.256 197.978 18.984 198.154 18.6L198.43 17.988L195.61 11.688H196.498L198.874 17.052L201.25 11.688H202.09Z" fill="#1A1B1F"/>
<path fill-rule="evenodd" clip-rule="evenodd" d="M231 22C235.418 22 239 18.4183 239 14C239 9.58172 235.418 6 231 6C226.582 6 223 9.58172 223 14C223 18.4183 226.582 22 231 22Z" fill="#E02020"/>
<path opacity="0.6" d="M255.352 9.6L251.632 18H250.756L247.036 9.6H247.996L251.212 16.896L254.452 9.6H255.352ZM261.407 15.108H256.127C256.175 15.764 256.427 16.296 256.883 16.704C257.339 17.104 257.915 17.304 258.611 17.304C259.003 17.304 259.363 17.236 259.691 17.1C260.019 16.956 260.303 16.748 260.543 16.476L261.023 17.028C260.743 17.364 260.391 17.62 259.967 17.796C259.551 17.972 259.091 18.06 258.587 18.06C257.939 18.06 257.363 17.924 256.859 17.652C256.363 17.372 255.975 16.988 255.695 16.5C255.415 16.012 255.275 15.46 255.275 14.844C255.275 14.228 255.407 13.676 255.671 13.188C255.943 12.7 256.311 12.32 256.775 12.048C257.247 11.776 257.775 11.64 258.359 11.64C258.943 11.64 259.467 11.776 259.931 12.048C260.395 12.32 260.759 12.7 261.023 13.188C261.287 13.668 261.419 14.22 261.419 14.844L261.407 15.108ZM258.359 12.372C257.751 12.372 257.239 12.568 256.823 12.96C256.415 13.344 256.183 13.848 256.127 14.472H260.603C260.547 13.848 260.311 13.344 259.895 12.96C259.487 12.568 258.975 12.372 258.359 12.372ZM263.969 12.924C264.169 12.5 264.465 12.18 264.857 11.964C265.257 11.748 265.749 11.64 266.333 11.64V12.468L266.129 12.456C265.465 12.456 264.945 12.66 264.569 13.068C264.193 13.476 264.005 14.048 264.005 14.784V18H263.153V11.688H263.969V12.924ZM273.449 11.688L270.293 18.756C270.037 19.348 269.741 19.768 269.405 20.016C269.069 20.264 268.665 20.388 268.193 20.388C267.889 20.388 267.605 20.34 267.341 20.244C267.077 20.148 266.849 20.004 266.657 19.812L267.053 19.176C267.373 19.496 267.757 19.656 268.205 19.656C268.493 19.656 268.737 19.576 268.937 19.416C269.145 19.256 269.337 18.984 269.513 18.6L269.789 17.988L266.969 11.688H267.857L270.233 17.052L272.609 11.688H273.449ZM283.262 13.668C283.814 13.788 284.238 14.028 284.534 14.388C284.838 14.74 284.99 15.196 284.99 15.756C284.99 16.476 284.722 17.032 284.186 17.424C283.658 17.808 282.874 18 281.834 18H277.97V9.6H281.594C282.53 9.6 283.254 9.788 283.766 10.164C284.286 10.54 284.546 11.072 284.546 11.76C284.546 12.224 284.43 12.62 284.198 12.948C283.974 13.268 283.662 13.508 283.262 13.668ZM278.858 10.332V13.38H281.534C282.214 13.38 282.738 13.252 283.106 12.996C283.474 12.732 283.658 12.352 283.658 11.856C283.658 11.36 283.474 10.984 283.106 10.728C282.738 10.464 282.214 10.332 281.534 10.332H278.858ZM281.822 17.268C282.574 17.268 283.142 17.14 283.526 16.884C283.91 16.628 284.102 16.228 284.102 15.684C284.102 14.636 283.342 14.112 281.822 14.112H278.858V17.268H281.822ZM292.524 11.688V18H291.708V16.848C291.484 17.232 291.176 17.532 290.784 17.748C290.392 17.956 289.944 18.06 289.44 18.06C288.616 18.06 287.964 17.832 287.484 17.376C287.012 16.912 286.776 16.236 286.776 15.348V11.688H287.628V15.264C287.628 15.928 287.792 16.432 288.12 16.776C288.448 17.12 288.916 17.292 289.524 17.292C290.188 17.292 290.712 17.092 291.096 16.692C291.48 16.284 291.672 15.72 291.672 15V11.688H292.524ZM296.603 18.06C296.091 18.06 295.599 17.988 295.127 17.844C294.663 17.692 294.299 17.504 294.035 17.28L294.419 16.608C294.683 16.816 295.015 16.988 295.415 17.124C295.815 17.252 296.231 17.316 296.663 17.316C297.239 17.316 297.663 17.228 297.935 17.052C298.215 16.868 298.355 16.612 298.355 16.284C298.355 16.052 298.279 15.872 298.127 15.744C297.975 15.608 297.783 15.508 297.551 15.444C297.319 15.372 297.011 15.304 296.627 15.24C296.115 15.144 295.703 15.048 295.391 14.952C295.079 14.848 294.811 14.676 294.587 14.436C294.371 14.196 294.263 13.864 294.263 13.44C294.263 12.912 294.483 12.48 294.923 12.144C295.363 11.808 295.975 11.64 296.759 11.64C297.167 11.64 297.575 11.696 297.983 11.808C298.391 11.912 298.727 12.052 298.991 12.228L298.619 12.912C298.099 12.552 297.479 12.372 296.759 12.372C296.215 12.372 295.803 12.468 295.523 12.66C295.251 12.852 295.115 13.104 295.115 13.416C295.115 13.656 295.191 13.848 295.343 13.992C295.503 14.136 295.699 14.244 295.931 14.316C296.163 14.38 296.483 14.448 296.891 14.52C297.395 14.616 297.799 14.712 298.103 14.808C298.407 14.904 298.667 15.068 298.883 15.3C299.099 15.532 299.207 15.852 299.207 16.26C299.207 16.812 298.975 17.252 298.511 17.58C298.055 17.9 297.419 18.06 296.603 18.06ZM305.969 11.688L302.813 18.756C302.557 19.348 302.261 19.768 301.925 20.016C301.589 20.264 301.185 20.388 300.713 20.388C300.409 20.388 300.125 20.34 299.861 20.244C299.597 20.148 299.369 20.004 299.177 19.812L299.573 19.176C299.893 19.496 300.277 19.656 300.725 19.656C301.013 19.656 301.257 19.576 301.457 19.416C301.665 19.256 301.857 18.984 302.033 18.6L302.309 17.988L299.489 11.688H300.377L302.753 17.052L305.129 11.688H305.969Z" fill="#1A1B1F"/>
</svg>
