<svg width="46" height="57" viewBox="0 0 46 57" fill="none" xmlns="http://www.w3.org/2000/svg">
<g filter="url(#filter0_d)">
<path fill-rule="evenodd" clip-rule="evenodd" d="M11.3333 19C11.3333 12.55 16.55 7.33331 23 7.33331C29.45 7.33331 34.6667 12.55 34.6667 19C34.6667 27.75 23 40.6666 23 40.6666C23 40.6666 11.3333 27.75 11.3333 19ZM18.8333 19C18.8333 21.3 20.7 23.1666 23 23.1666C25.3 23.1666 27.1667 21.3 27.1667 19C27.1667 16.7 25.3 14.8333 23 14.8333C20.7 14.8333 18.8333 16.7 18.8333 19Z" fill="#E02020"/>
<path d="M23 40.6666L22.2579 41.3369L23 42.1585L23.7421 41.3369L23 40.6666ZM23 6.33331C15.9977 6.33331 10.3333 11.9977 10.3333 19H12.3333C12.3333 13.1023 17.1023 8.33331 23 8.33331V6.33331ZM35.6667 19C35.6667 11.9977 30.0023 6.33331 23 6.33331V8.33331C28.8977 8.33331 33.6667 13.1023 33.6667 19H35.6667ZM23 40.6666C23.7421 41.3369 23.7423 41.3368 23.7425 41.3365C23.7426 41.3364 23.7428 41.3361 23.7431 41.3358C23.7436 41.3353 23.7443 41.3345 23.7451 41.3336C23.7468 41.3317 23.7492 41.329 23.7524 41.3256C23.7586 41.3186 23.7675 41.3086 23.7792 41.2956C23.8025 41.2695 23.8365 41.2313 23.8805 41.1815C23.9685 41.0818 24.0966 40.9357 24.2589 40.7472C24.5835 40.3705 25.0456 39.8242 25.5994 39.1419C26.706 37.7783 28.1832 35.8662 29.6623 33.6739C31.1395 31.4844 32.6311 28.9975 33.7564 26.4856C34.8758 23.9869 35.6667 21.3898 35.6667 19H33.6667C33.6667 20.9851 32.9992 23.2838 31.9312 25.668C30.8689 28.039 29.4438 30.4218 28.0044 32.5553C26.5668 34.6859 25.1273 36.5497 24.0465 37.8815C23.5065 38.5469 23.0571 39.0781 22.7437 39.4418C22.587 39.6237 22.4644 39.7636 22.3815 39.8574C22.3401 39.9043 22.3086 39.9397 22.2878 39.9631C22.2773 39.9747 22.2696 39.9834 22.2646 39.9889C22.2621 39.9917 22.2603 39.9937 22.2591 39.995C22.2586 39.9956 22.2582 39.996 22.258 39.9963C22.2579 39.9964 22.2579 39.9964 22.2578 39.9965C22.2578 39.9964 22.2579 39.9964 23 40.6666ZM10.3333 19C10.3333 21.3898 11.1242 23.9869 12.2437 26.4856C13.3689 28.9975 14.8605 31.4844 16.3377 33.6739C17.8168 35.8662 19.294 37.7783 20.4006 39.1419C20.9544 39.8242 21.4165 40.3705 21.7411 40.7472C21.9034 40.9357 22.0315 41.0818 22.1195 41.1815C22.1635 41.2313 22.1975 41.2695 22.2208 41.2956C22.2325 41.3086 22.2415 41.3186 22.2477 41.3256C22.2508 41.329 22.2532 41.3317 22.2549 41.3336C22.2558 41.3345 22.2564 41.3353 22.2569 41.3358C22.2572 41.3361 22.2574 41.3364 22.2576 41.3365C22.2578 41.3368 22.2579 41.3369 23 40.6666C23.7421 39.9964 23.7422 39.9964 23.7422 39.9965C23.7421 39.9964 23.7421 39.9964 23.742 39.9963C23.7418 39.996 23.7414 39.9956 23.7409 39.995C23.7398 39.9937 23.7379 39.9917 23.7354 39.9889C23.7304 39.9834 23.7227 39.9747 23.7123 39.9631C23.6914 39.9397 23.6599 39.9043 23.6185 39.8574C23.5356 39.7636 23.413 39.6237 23.2563 39.4418C22.9429 39.0781 22.4935 38.5469 21.9536 37.8815C20.8727 36.5497 19.4332 34.6859 17.9956 32.5553C16.5562 30.4218 15.1311 28.039 14.0689 25.668C13.0008 23.2838 12.3333 20.9851 12.3333 19H10.3333ZM23 22.1666C21.2523 22.1666 19.8333 20.7477 19.8333 19H17.8333C17.8333 21.8523 20.1477 24.1666 23 24.1666V22.1666ZM26.1667 19C26.1667 20.7477 24.7477 22.1666 23 22.1666V24.1666C25.8523 24.1666 28.1667 21.8523 28.1667 19H26.1667ZM23 15.8333C24.7477 15.8333 26.1667 17.2523 26.1667 19H28.1667C28.1667 16.1477 25.8523 13.8333 23 13.8333V15.8333ZM19.8333 19C19.8333 17.2523 21.2523 15.8333 23 15.8333V13.8333C20.1477 13.8333 17.8333 16.1477 17.8333 19H19.8333Z" fill="white"/>
</g>
<defs>
<filter id="filter0_d" x="0.333344" y="0.333313" width="45.3333" height="55.8252" filterUnits="userSpaceOnUse" color-interpolation-filters="sRGB">
<feFlood flood-opacity="0" result="BackgroundImageFix"/>
<feColorMatrix in="SourceAlpha" type="matrix" values="0 0 0 0 0 0 0 0 0 0 0 0 0 0 0 0 0 0 127 0"/>
<feOffset dy="4"/>
<feGaussianBlur stdDeviation="5"/>
<feColorMatrix type="matrix" values="0 0 0 0 0 0 0 0 0 0 0 0 0 0 0 0 0 0 0.25 0"/>
<feBlend mode="normal" in2="BackgroundImageFix" result="effect1_dropShadow"/>
<feBlend mode="normal" in="SourceGraphic" in2="effect1_dropShadow" result="shape"/>
</filter>
</defs>
</svg>
