<svg width="46" height="57" viewBox="0 0 46 57" fill="none" xmlns="http://www.w3.org/2000/svg">
<g filter="url(#filter0_d)">
<path fill-rule="evenodd" clip-rule="evenodd" d="M11 19C11 12.55 16.2167 7.33331 22.6667 7.33331C29.1167 7.33331 34.3333 12.55 34.3333 19C34.3333 27.75 22.6667 40.6666 22.6667 40.6666C22.6667 40.6666 11 27.75 11 19ZM18.5 19C18.5 21.3 20.3667 23.1666 22.6667 23.1666C24.9667 23.1666 26.8333 21.3 26.8333 19C26.8333 16.7 24.9667 14.8333 22.6667 14.8333C20.3667 14.8333 18.5 16.7 18.5 19Z" fill="#44D7B6"/>
<path d="M22.6667 40.6666L21.9246 41.3369L22.6667 42.1585L23.4088 41.3369L22.6667 40.6666ZM22.6667 6.33331C15.6644 6.33331 10 11.9977 10 19H12C12 13.1023 16.769 8.33331 22.6667 8.33331V6.33331ZM35.3333 19C35.3333 11.9977 29.669 6.33331 22.6667 6.33331V8.33331C28.5644 8.33331 33.3333 13.1023 33.3333 19H35.3333ZM22.6667 40.6666C23.4088 41.3369 23.4089 41.3368 23.4091 41.3365C23.4092 41.3364 23.4095 41.3361 23.4097 41.3358C23.4102 41.3353 23.4109 41.3345 23.4118 41.3336C23.4135 41.3317 23.4159 41.329 23.419 41.3256C23.4252 41.3186 23.4342 41.3086 23.4458 41.2956C23.4692 41.2695 23.5032 41.2313 23.5472 41.1815C23.6352 41.0818 23.7632 40.9357 23.9256 40.7472C24.2502 40.3705 24.7123 39.8242 25.266 39.1419C26.3727 37.7783 27.8498 35.8662 29.329 33.6739C30.8062 31.4844 32.2977 28.9975 33.423 26.4856C34.5424 23.9869 35.3333 21.3898 35.3333 19H33.3333C33.3333 20.9851 32.6659 23.2838 31.5978 25.668C30.5356 28.039 29.1105 30.4218 27.671 32.5553C26.2335 34.6859 24.794 36.5497 23.7131 37.8815C23.1731 38.5469 22.7238 39.0781 22.4104 39.4418C22.2537 39.6237 22.1311 39.7636 22.0482 39.8574C22.0068 39.9043 21.9753 39.9397 21.9544 39.9631C21.944 39.9747 21.9362 39.9834 21.9312 39.9889C21.9287 39.9917 21.9269 39.9937 21.9258 39.995C21.9252 39.9956 21.9249 39.996 21.9247 39.9963C21.9246 39.9964 21.9245 39.9964 21.9245 39.9965C21.9245 39.9964 21.9246 39.9964 22.6667 40.6666ZM10 19C10 21.3898 10.7909 23.9869 11.9103 26.4856C13.0356 28.9975 14.5272 31.4844 16.0044 33.6739C17.4835 35.8662 18.9607 37.7783 20.0673 39.1419C20.6211 39.8242 21.0831 40.3705 21.4078 40.7472C21.5701 40.9357 21.6981 41.0818 21.7862 41.1815C21.8302 41.2313 21.8642 41.2695 21.8875 41.2956C21.8991 41.3086 21.9081 41.3186 21.9143 41.3256C21.9174 41.329 21.9198 41.3317 21.9216 41.3336C21.9224 41.3345 21.9231 41.3353 21.9236 41.3358C21.9238 41.3361 21.9241 41.3364 21.9242 41.3365C21.9244 41.3368 21.9246 41.3369 22.6667 40.6666C23.4088 39.9964 23.4088 39.9964 23.4089 39.9965C23.4088 39.9964 23.4088 39.9964 23.4087 39.9963C23.4085 39.996 23.4081 39.9956 23.4075 39.995C23.4064 39.9937 23.4046 39.9917 23.4021 39.9889C23.3971 39.9834 23.3893 39.9747 23.3789 39.9631C23.3581 39.9397 23.3266 39.9043 23.2851 39.8574C23.2023 39.7636 23.0796 39.6237 22.923 39.4418C22.6096 39.0781 22.1602 38.5469 21.6202 37.8815C20.5393 36.5497 19.0998 34.6859 17.6623 32.5553C16.2228 30.4218 14.7977 28.039 13.7355 25.668C12.6674 23.2838 12 20.9851 12 19H10ZM22.6667 22.1666C20.919 22.1666 19.5 20.7477 19.5 19H17.5C17.5 21.8523 19.8144 24.1666 22.6667 24.1666V22.1666ZM25.8333 19C25.8333 20.7477 24.4144 22.1666 22.6667 22.1666V24.1666C25.519 24.1666 27.8333 21.8523 27.8333 19H25.8333ZM22.6667 15.8333C24.4144 15.8333 25.8333 17.2523 25.8333 19H27.8333C27.8333 16.1477 25.519 13.8333 22.6667 13.8333V15.8333ZM19.5 19C19.5 17.2523 20.919 15.8333 22.6667 15.8333V13.8333C19.8144 13.8333 17.5 16.1477 17.5 19H19.5Z" fill="white"/>
</g>
<defs>
<filter id="filter0_d" x="0" y="0.333313" width="45.3333" height="55.8252" filterUnits="userSpaceOnUse" color-interpolation-filters="sRGB">
<feFlood flood-opacity="0" result="BackgroundImageFix"/>
<feColorMatrix in="SourceAlpha" type="matrix" values="0 0 0 0 0 0 0 0 0 0 0 0 0 0 0 0 0 0 127 0"/>
<feOffset dy="4"/>
<feGaussianBlur stdDeviation="5"/>
<feColorMatrix type="matrix" values="0 0 0 0 0 0 0 0 0 0 0 0 0 0 0 0 0 0 0.25 0"/>
<feBlend mode="normal" in2="BackgroundImageFix" result="effect1_dropShadow"/>
<feBlend mode="normal" in="SourceGraphic" in2="effect1_dropShadow" result="shape"/>
</filter>
</defs>
</svg>
