<svg width="19" height="16" viewBox="0 0 19 16" fill="none" xmlns="http://www.w3.org/2000/svg">
<path fill-rule="evenodd" clip-rule="evenodd" d="M7 5.6C7 2.504 9.504 0 12.6 0C15.696 0 18.2 2.504 18.2 5.6C18.2 9.8 12.6 16 12.6 16C12.6 16 7 9.8 7 5.6ZM10.6 5.59998C10.6 6.70398 11.496 7.59998 12.6 7.59998C13.704 7.59998 14.6 6.70398 14.6 5.59998C14.6 4.49598 13.704 3.59998 12.6 3.59998C11.496 3.59998 10.6 4.49598 10.6 5.59998Z" fill="#B4B4B4"/>
<rect x="8" y="14" width="2" height="2" fill="#B4B4B4"/>
<rect x="4" y="14" width="2" height="2" fill="#B4B4B4"/>
<rect y="14" width="2" height="2" fill="#B4B4B4"/>
</svg>
