<svg width="32" height="32" viewBox="0 0 32 32" fill="none" xmlns="http://www.w3.org/2000/svg">
<path d="M0 4C0 1.79086 1.79086 0 4 0H28C30.2091 0 32 1.79086 32 4V28C32 30.2091 30.2091 32 28 32H4C1.79086 32 0 30.2091 0 28V4Z" fill="#A277FF"/>
<path fill-rule="evenodd" clip-rule="evenodd" d="M8 12.4C8 7.756 11.756 4 16.4 4C21.044 4 24.8 7.756 24.8 12.4C24.8 18.7 16.4 28 16.4 28C16.4 28 8 18.7 8 12.4ZM13.4 12.4C13.4 14.056 14.744 15.4 16.4 15.4C18.056 15.4 19.4 14.056 19.4 12.4C19.4 10.744 18.056 9.39997 16.4 9.39997C14.744 9.39997 13.4 10.744 13.4 12.4Z" fill="white"/>
</svg>
